<svg id="file-earmark-check" xmlns="http://www.w3.org/2000/svg" width="18.535" height="18.534" viewBox="0 0 18.535 18.534">
  <defs>
    <style>
      .cls-1, .cls-2 {
        fill: #191847;
      }

      .cls-2 {
        fill-rule: evenodd;
      }
    </style>
  </defs>
  <path id="Path_111" data-name="Path 111" class="cls-1" d="M13.767,2.25H7.148A2.648,2.648,0,0,0,4.5,4.9V18.136a2.648,2.648,0,0,0,2.648,2.648h6.619V19.46H7.148a1.324,1.324,0,0,1-1.324-1.324V4.9A1.324,1.324,0,0,1,7.148,3.574h6.619v3.31a1.986,1.986,0,0,0,1.986,1.986h3.31v2.648h1.324V8.869Z" transform="translate(-4.5 -2.25)"/>
  <path id="Path_112" data-name="Path 112" class="cls-2" d="M30.712,22.693a.662.662,0,0,1,0,.937L26.74,27.6a.662.662,0,0,1-.937,0l-1.986-1.986a.663.663,0,1,1,.937-.937L26.272,26.2l3.5-3.5a.662.662,0,0,1,.937,0Z" transform="translate(-12.371 -10.585)"/>
</svg>
