<svg xmlns="http://www.w3.org/2000/svg" width="29.848" height="25.27" viewBox="0 0 29.848 25.27">
  <defs>
    <style>
      .cls-1 {
        fill: #fff;
      }

      .cls-1, .cls-2 {
        stroke: #191847;
        stroke-linecap: round;
        stroke-linejoin: round;
        stroke-width: 2px;
      }

      .cls-2 {
        fill: none;
      }

      .cls-3 {
        fill: #191847;
      }
    </style>
  </defs>
  <g id="Group_49" data-name="Group 49" transform="translate(1 1)">
    <rect id="Rectangle_66" data-name="Rectangle 66" class="cls-1" width="24.884" height="18.987" transform="translate(0 1.514)"/>
    <circle id="Ellipse_37" data-name="Ellipse 37" class="cls-1" cx="5.353" cy="5.353" r="5.353" transform="translate(17.142 12.563)"/>
    <line id="Line_36" data-name="Line 36" class="cls-2" y1="3.286" transform="translate(12.453 0)"/>
    <line id="Line_37" data-name="Line 37" class="cls-2" y1="3.286" transform="translate(4.563 0)"/>
    <line id="Line_38" data-name="Line 38" class="cls-2" y1="3.286" transform="translate(20.254 0)"/>
    <path id="Path_112" data-name="Path 112" class="cls-2" d="M350.173,430.469v3.889h2.191" transform="translate(-327.678 -416.442)"/>
    <circle id="Ellipse_38" data-name="Ellipse 38" class="cls-3" cx="1.046" cy="1.046" r="1.046" transform="translate(5.535 5.751)"/>
    <circle id="Ellipse_39" data-name="Ellipse 39" class="cls-3" cx="1.046" cy="1.046" r="1.046" transform="translate(11.396 5.751)"/>
    <circle id="Ellipse_40" data-name="Ellipse 40" class="cls-3" cx="1.046" cy="1.046" r="1.046" transform="translate(17.228 5.751)"/>
    <circle id="Ellipse_41" data-name="Ellipse 41" class="cls-3" cx="1.046" cy="1.046" r="1.046" transform="translate(5.535 9)"/>
    <circle id="Ellipse_42" data-name="Ellipse 42" class="cls-3" cx="1.046" cy="1.046" r="1.046" transform="translate(11.396 9)"/>
    <circle id="Ellipse_43" data-name="Ellipse 43" class="cls-3" cx="1.046" cy="1.046" r="1.046" transform="translate(17.228 9)"/>
    <circle id="Ellipse_44" data-name="Ellipse 44" class="cls-3" cx="1.046" cy="1.046" r="1.046" transform="translate(5.535 12.249)"/>
    <circle id="Ellipse_45" data-name="Ellipse 45" class="cls-3" cx="1.046" cy="1.046" r="1.046" transform="translate(11.396 12.249)"/>
    <circle id="Ellipse_46" data-name="Ellipse 46" class="cls-3" cx="1.046" cy="1.046" r="1.046" transform="translate(5.535 15.498)"/>
    <circle id="Ellipse_47" data-name="Ellipse 47" class="cls-3" cx="1.046" cy="1.046" r="1.046" transform="translate(11.396 15.498)"/>
  </g>
</svg>
