<svg xmlns="http://www.w3.org/2000/svg" width="30.148" height="30.148" viewBox="0 0 30.148 30.148">
  <defs>
    <style>
      .cls-1 {
        fill: #c1c1c1;
      }
    </style>
  </defs>
  <path id="phone" class="cls-1" d="M6.046,13.033A24.63,24.63,0,0,0,17.116,24.1l3.69-3.69a1.44,1.44,0,0,1,1.728-.393,18.745,18.745,0,0,0,5.967.942,1.637,1.637,0,0,1,1.138.471,1.537,1.537,0,0,1,.51,1.177V28.5A1.751,1.751,0,0,1,28.5,30.148,28.022,28.022,0,0,1,14.171,26.34,28.125,28.125,0,0,1,3.808,15.977,28.022,28.022,0,0,1,0,1.649,1.576,1.576,0,0,1,.51.511,1.58,1.58,0,0,1,1.649,0H7.537A1.535,1.535,0,0,1,8.714.51a1.642,1.642,0,0,1,.471,1.138,18.745,18.745,0,0,0,.942,5.967,1.606,1.606,0,0,1-.393,1.728Z"/>
</svg>
