<svg xmlns="http://www.w3.org/2000/svg" width="17.113" height="13.527" viewBox="0 0 17.113 13.527">
  <defs>
    <style>
      .cls-1 {
        fill: #191847;
        fill-rule: evenodd;
      }
    </style>
  </defs>
  <g id="upload" transform="translate(0 -3.044)">
    <path id="Path_156" data-name="Path 156" class="cls-1" d="M.535,10.154a.535.535,0,0,1,.535.535v3.744a1.07,1.07,0,0,0,1.07,1.07H14.974a1.07,1.07,0,0,0,1.07-1.07V10.689a.535.535,0,0,1,1.07,0v3.744a2.139,2.139,0,0,1-2.139,2.139H2.139A2.139,2.139,0,0,1,0,14.432V10.689a.535.535,0,0,1,.535-.535ZM5.348,6.789a.535.535,0,0,0,.756,0L8.557,4.335l2.452,2.452a.535.535,0,1,0,.756-.756L8.935,3.2a.535.535,0,0,0-.757,0l-2.83,2.83a.535.535,0,0,0,0,.757Z"/>
    <path id="Path_157" data-name="Path 157" class="cls-1" d="M17.41,4.5a.535.535,0,0,1,.535.535v8.557a.535.535,0,0,1-1.07,0V5.035A.535.535,0,0,1,17.41,4.5Z" transform="translate(-8.853 -0.764)"/>
  </g>
</svg>
