<svg xmlns="http://www.w3.org/2000/svg" width="23.588" height="23.588" viewBox="0 0 23.588 23.588">
  <defs>
    <style>
      .cls-1 {
        fill: #faf9f6;
        fill-rule: evenodd;
      }
    </style>
  </defs>
  <path id="x-circle-fill" class="cls-1" d="M23.588,11.794A11.794,11.794,0,1,1,11.794,0,11.794,11.794,0,0,1,23.588,11.794ZM17.475,7.156a.738.738,0,0,0-1.044-1.044l-4.638,4.64L7.156,6.113A.738.738,0,0,0,6.112,7.156l4.64,4.638-4.64,4.638a.738.738,0,0,0,1.044,1.044l4.638-4.64,4.638,4.64a.738.738,0,1,0,1.044-1.044l-4.64-4.638,4.64-4.638Z"/>
</svg>
