<svg xmlns="http://www.w3.org/2000/svg" width="32.462" height="26" viewBox="0 0 32.462 26">
  <defs>
    <style>
      .cls-1 {
        fill: #c1c1c1;
      }
    </style>
  </defs>
  <path id="email" class="cls-1" d="M29.193,1.75a3.155,3.155,0,0,1,2.319.951,3.151,3.151,0,0,1,.95,2.318V24.48a3.246,3.246,0,0,1-3.269,3.27H3.269A3.155,3.155,0,0,1,.95,26.8,3.151,3.151,0,0,1,0,24.481V5.019A3.155,3.155,0,0,1,.951,2.7a3.151,3.151,0,0,1,2.318-.95Zm0,6.538V5.019l-13,8.135L3.269,5.019V8.287l12.924,8.058Z" transform="translate(0 -1.75)"/>
</svg>
