<svg xmlns="http://www.w3.org/2000/svg" width="17.198" height="10.032" viewBox="0 0 17.198 10.032">
  <defs>
    <style>
      .cls-1 {
        fill: #191847;
        fill-rule: evenodd;
      }
    </style>
  </defs>
  <g id="filter" transform="translate(-4.5 -9)">
    <path id="Path_146" data-name="Path 146" class="cls-1" d="M10.233,18.316a.717.717,0,0,1,.717-.717h4.3a.717.717,0,0,1,0,1.433h-4.3A.717.717,0,0,1,10.233,18.316Zm-2.866-4.3a.717.717,0,0,1,.717-.717H18.115a.717.717,0,1,1,0,1.433H8.083A.717.717,0,0,1,7.366,14.016ZM4.5,9.717A.717.717,0,0,1,5.217,9H20.981a.717.717,0,0,1,0,1.433H5.217A.717.717,0,0,1,4.5,9.717Z"/>
  </g>
</svg>
