<svg id="folder" xmlns="http://www.w3.org/2000/svg" width="20.427" height="17" viewBox="0 0 20.427 17">
  <defs>
    <style>
      .cls-1, .cls-2 {
        fill: #191847;
      }

      .cls-2 {
        fill-rule: evenodd;
      }
    </style>
  </defs>
  <path id="Path_113" data-name="Path 113" class="cls-1" d="M13.323,6.173a3.923,3.923,0,0,1-2.772-1.15L9.466,3.941a1.308,1.308,0,0,0-.922-.383H3.74A1.308,1.308,0,0,0,2.433,4.841l.06,1.332H1.185l-.06-1.308A2.615,2.615,0,0,1,3.74,2.25h4.8a2.615,2.615,0,0,1,1.849.767L11.474,4.1a2.615,2.615,0,0,0,1.849.766Z" transform="translate(-0.72 -2.25)"/>
  <path id="Path_114" data-name="Path 114" class="cls-2" d="M18.239,8.058H3.043a1.308,1.308,0,0,0-1.3,1.426l.833,9.154a1.308,1.308,0,0,0,1.3,1.19H17.407a1.308,1.308,0,0,0,1.3-1.19l.833-9.154a1.308,1.308,0,0,0-1.3-1.426ZM3.043,6.75A2.615,2.615,0,0,0,.438,9.6l.833,9.154a2.615,2.615,0,0,0,2.6,2.379H17.407a2.615,2.615,0,0,0,2.6-2.379L20.844,9.6a2.615,2.615,0,0,0-2.6-2.852Z" transform="translate(-0.428 -4.135)"/>
</svg>
