<svg xmlns="http://www.w3.org/2000/svg" width="23.678" height="25.501" viewBox="0 0 23.678 25.501">
  <defs>
    <style>
      .cls-1, .cls-2 {
        fill: #c1c1c1;
      }

      .cls-2 {
        fill-rule: evenodd;
      }
    </style>
  </defs>
  <g id="house-door-fill" transform="translate(-3.375 -2.248)">
    <path id="Path_154" data-name="Path 154" class="cls-1" d="M12.482,20.455v6.384a.911.911,0,0,1-.911.911H4.286a.911.911,0,0,1-.911-.911V14.089a.911.911,0,0,1,.266-.644L14.569,2.516a.911.911,0,0,1,1.29,0L26.787,13.445a.911.911,0,0,1,.266.644v12.75a.911.911,0,0,1-.911.911H18.856a.911.911,0,0,1-.911-.911V20.464a.979.979,0,0,0-.911-.911H13.393A.978.978,0,0,0,12.482,20.455Z"/>
    <path id="Path_155" data-name="Path 155" class="cls-2" d="M28.393,5.411v6.375L24.75,8.143V5.411a.911.911,0,0,1,.911-.911h1.821A.911.911,0,0,1,28.393,5.411Z" transform="translate(-4.071 -0.429)"/>
  </g>
</svg>
