<svg xmlns="http://www.w3.org/2000/svg" width="29.615" height="29.614" viewBox="0 0 29.615 29.614">
  <defs>
    <style>
      .cls-1 {
        fill: #c1c1c1;
      }
    </style>
  </defs>
  <g id="link-45deg" transform="translate(-5.545 -4.421)">
    <path id="Path_158" data-name="Path 158" class="cls-1" d="M11.565,15.163,7.9,18.832a8.026,8.026,0,0,0,11.35,11.35l4.89-4.892A8.025,8.025,0,0,0,21.92,12.375l-1.568,1.568a2.677,2.677,0,0,0-.411.533,5.35,5.35,0,0,1,2.3,8.926L17.356,28.29a5.352,5.352,0,1,1-7.57-7.57L11.908,18.6a10.747,10.747,0,0,1-.342-3.443Z" transform="translate(0 1.502)"/>
    <path id="Path_159" data-name="Path 159" class="cls-1" d="M12.854,16.4l.447-.447a5.324,5.324,0,0,1,2.4-1.385,5.324,5.324,0,0,1,1.385-2.4l.447-.447a8.036,8.036,0,0,0-3.905.768,8.01,8.01,0,0,0-.77,3.905Z" transform="translate(1.378 1.378)"/>
    <path id="Path_160" data-name="Path 160" class="cls-1" d="M15.192,11.662a8.025,8.025,0,0,0,2.214,12.915L19.479,22.5a5.35,5.35,0,0,1-2.4-8.951l4.887-4.89a5.352,5.352,0,1,1,7.57,7.57l-2.121,2.119a10.755,10.755,0,0,1,.342,3.443l3.67-3.67a8.026,8.026,0,1,0-11.35-11.35Z" transform="translate(1.378)"/>
    <path id="Path_161" data-name="Path 161" class="cls-1" d="M23.12,22a8,8,0,0,0,.77-3.905l-.447.447a5.324,5.324,0,0,1-2.4,1.385,5.324,5.324,0,0,1-1.385,2.4l-.447.447A8.036,8.036,0,0,0,23.12,22Z" transform="translate(2.582 2.582)"/>
  </g>
</svg>
