<svg xmlns="http://www.w3.org/2000/svg" width="24.295" height="24.295" viewBox="0 0 24.295 24.295">
  <defs>
    <style>
      .cls-1 {
        fill: #fff;
        stroke: #191847;
        stroke-linecap: round;
        stroke-linejoin: round;
        stroke-width: 2px;
      }

      .cls-2 {
        fill: #191847;
      }
    </style>
  </defs>
  <g id="Group_51" data-name="Group 51" transform="translate(1 1)">
    <ellipse id="Ellipse_49" data-name="Ellipse 49" class="cls-1" cx="11.147" cy="11.147" rx="11.147" ry="11.147"/>
    <path id="Path_122" data-name="Path 122" class="cls-2" d="M519.722,248.623a1.057,1.057,0,0,1,1.057,1.057v.446a3.179,3.179,0,0,1,2.116,2.992,1.058,1.058,0,0,1-2.116,0,1.058,1.058,0,1,0-2.116,0v.428a1.053,1.053,0,0,0,.743,1.009l1.262.394a3.161,3.161,0,0,1,2.227,3.029v.429a3.179,3.179,0,0,1-2.512,3.1v.334a1.058,1.058,0,0,1-2.116,0v-.619a3.177,3.177,0,0,1-1.719-2.819,1.058,1.058,0,1,1,2.116,0,1.058,1.058,0,0,0,2.116,0v-.429a1.054,1.054,0,0,0-.743-1.009l-1.262-.394a3.16,3.16,0,0,1-2.227-3.029v-.428a3.179,3.179,0,0,1,2.116-2.992v-.446A1.058,1.058,0,0,1,519.722,248.623Z" transform="translate(-508.574 -244.64)"/>
  </g>
</svg>
