<svg xmlns="http://www.w3.org/2000/svg" width="17.263" height="17.263" viewBox="0 0 17.263 17.263">
  <defs>
    <style>
      .cls-1 {
        fill: #191847;
        fill-rule: evenodd;
      }
    </style>
  </defs>
  <g id="pencil" transform="translate(-2.247 -2.25)">
    <path id="Path_115" data-name="Path 115" class="cls-1" d="M14.94,2.611a1.233,1.233,0,0,1,1.743,0l2.466,2.466a1.233,1.233,0,0,1,0,1.743l-11.1,11.1a1.233,1.233,0,0,1-.481.3l-3.7,1.233a1.233,1.233,0,0,1-1.561-1.56l1.233-3.7a1.233,1.233,0,0,1,.3-.482l11.1-11.1Zm.872.872,2.466,2.466-11.1,11.1-3.7,1.233,1.233-3.7Z"/>
    <path id="Path_116" data-name="Path 116" class="cls-1" d="M18.028,11.034,14.945,7.951l.873-.873L18.9,10.161l-.872.873ZM6.75,15.529v.617a.617.617,0,0,0,.617.617h.617v.617A.617.617,0,0,0,8.6,18h.617v.617a.617.617,0,0,0,.617.617h.617v-1.85a.617.617,0,0,0-.617-.617H9.216v-.617a.617.617,0,0,0-.617-.617Z" transform="translate(-2.035 -2.182)"/>
  </g>
</svg>
