<svg id="pencil-square" xmlns="http://www.w3.org/2000/svg" width="18.285" height="18.1" viewBox="0 0 18.285 18.1">
  <defs>
    <style>
      .cls-1, .cls-2 {
        fill: #191847;
      }

      .cls-2 {
        fill-rule: evenodd;
      }
    </style>
  </defs>
  <path id="Path_120" data-name="Path 120" class="cls-1" d="M23.359,2.922a.624.624,0,0,1,0,.881l-1.3,1.3-2.5-2.5,1.3-1.3a.624.624,0,0,1,.883,0l1.614,1.614ZM21.174,5.988l-2.5-2.5L10.173,12a.624.624,0,0,0-.151.245l-1,3.014a.312.312,0,0,0,.394.394l3.014-1a.624.624,0,0,0,.245-.15l8.5-8.506Z" transform="translate(-5.256 -1.124)"/>
  <path id="Path_121" data-name="Path 121" class="cls-2" d="M2.25,17.854a1.872,1.872,0,0,0,1.872,1.872H17.854a1.872,1.872,0,0,0,1.872-1.872v-7.49a.624.624,0,1,0-1.248,0v7.49a.624.624,0,0,1-.624.624H4.122a.624.624,0,0,1-.624-.624V4.122A.624.624,0,0,1,4.122,3.5h8.114a.624.624,0,1,0,0-1.248H4.122A1.872,1.872,0,0,0,2.25,4.122Z" transform="translate(-2.25 -1.626)"/>
</svg>
