<svg id="search" xmlns="http://www.w3.org/2000/svg" width="21.588" height="21.587" viewBox="0 0 21.588 21.587">
  <defs>
    <style>
      .cls-1 {
        fill: #fff;
        fill-rule: evenodd;
      }
    </style>
  </defs>
  <path id="Path_106" data-name="Path 106" class="cls-1" d="M23.232,23.231a1.349,1.349,0,0,1,1.909,0l5.194,5.194a1.349,1.349,0,0,1-1.908,1.909L23.234,25.14a1.349,1.349,0,0,1,0-1.909Z" transform="translate(-9.143 -9.142)"/>
  <path id="Path_107" data-name="Path 107" class="cls-1" d="M8.77,16.191A7.421,7.421,0,1,0,1.349,8.77,7.421,7.421,0,0,0,8.77,16.191ZM17.54,8.77A8.77,8.77,0,1,1,8.77,0a8.77,8.77,0,0,1,8.77,8.77Z"/>
</svg>
