<svg xmlns="http://www.w3.org/2000/svg" width="19" height="18" viewBox="0 0 19 18">
  <defs>
    <style>
      .cls-1 {
        fill: none;
      }

      .cls-2, .cls-3 {
        stroke: none;
      }

      .cls-3 {
        fill: #116cd4;
      }
    </style>
  </defs>
  <g id="Polygon_2" data-name="Polygon 2" class="cls-1">
    <path class="cls-2" d="M9.5,0l2.375,6.694L19,6.875l-5.657,4.319L15.371,18,9.5,13.975,3.629,18l2.028-6.806L0,6.875l7.125-.181Z"/>
    <path class="cls-3" d="M 9.5 1.495321273803711 L 7.596220016479492 6.861120223999023 L 7.481300354003906 7.185020446777344 L 7.137729644775391 7.193770408630371 L 1.431459426879883 7.33909797668457 L 5.960559844970703 10.79648971557617 L 6.234930038452148 11.00592994689941 L 6.136340141296387 11.33673000335693 L 4.511447906494141 16.78863906860352 L 9.217289924621582 13.56267929077148 L 9.5 13.36886978149414 L 9.782710075378418 13.56267929077148 L 14.48855209350586 16.78863906860352 L 12.86365985870361 11.33673000335693 L 12.76506996154785 11.00592994689941 L 13.0394401550293 10.79648971557617 L 17.56854248046875 7.339096069335938 L 11.86227035522461 7.193759918212891 L 11.51869964599609 7.185009956359863 L 11.40377998352051 6.861109733581543 L 9.5 1.495321273803711 M 9.5 0 L 11.875 6.693920135498047 L 19 6.87539005279541 L 13.34283065795898 11.19392013549805 L 15.37131977081299 18 L 9.5 13.9750804901123 L 3.628680229187012 18 L 5.657170295715332 11.19392013549805 L 0 6.87539005279541 L 7.125 6.693929672241211 L 9.5 0 Z"/>
  </g>
</svg>
