<svg xmlns="http://www.w3.org/2000/svg" width="19" height="18" viewBox="0 0 19 18">
  <defs>
    <style>
      .cls-1, .cls-3 {
        fill: #116cd4;
      }

      .cls-2, .cls-3 {
        stroke: none;
      }
    </style>
  </defs>
  <g id="Polygon_2" data-name="Polygon 2" class="cls-1">
    <path class="cls-2" d="M 14.9299259185791 17.39430999755859 L 9.641360282897949 13.76887989044189 L 9.5 13.6719799041748 L 9.358639717102051 13.76887989044189 L 4.07007360458374 17.39430999755859 L 5.896759986877441 11.26533031463623 L 5.94605016708374 11.09992980957031 L 5.8088698387146 10.99520015716553 L 0.7157407999038696 7.107243537902832 L 7.131360054016113 6.943850040435791 L 7.303150177001953 6.939469814300537 L 7.360610008239746 6.777520179748535 L 9.5 0.7476555705070496 L 11.63938999176025 6.777510166168213 L 11.69684982299805 6.939459800720215 L 11.86863040924072 6.943840026855469 L 18.28425979614258 7.107242584228516 L 13.19112968444824 10.99520015716553 L 13.05395030975342 11.09992980957031 L 13.10324001312256 11.26533031463623 L 14.9299259185791 17.39430999755859 Z"/>
    <path class="cls-3" d="M 9.5 1.495321273803711 L 7.596220016479492 6.861120223999023 L 7.481300354003906 7.185020446777344 L 7.137729644775391 7.193770408630371 L 1.431459426879883 7.33909797668457 L 5.960559844970703 10.79648971557617 L 6.234930038452148 11.00592994689941 L 6.136340141296387 11.33673000335693 L 4.511447906494141 16.78863906860352 L 9.217289924621582 13.56267929077148 L 9.5 13.36886978149414 L 9.782710075378418 13.56267929077148 L 14.48855209350586 16.78863906860352 L 12.86365985870361 11.33673000335693 L 12.76506996154785 11.00592994689941 L 13.0394401550293 10.79648971557617 L 17.56854248046875 7.339096069335938 L 11.86227035522461 7.193759918212891 L 11.51869964599609 7.185009956359863 L 11.40377998352051 6.861109733581543 L 9.5 1.495321273803711 M 9.5 0 L 11.875 6.693920135498047 L 19 6.87539005279541 L 13.34283065795898 11.19392013549805 L 15.37131977081299 18 L 9.5 13.9750804901123 L 3.628680229187012 18 L 5.657170295715332 11.19392013549805 L 0 6.87539005279541 L 7.125 6.693929672241211 L 9.5 0 Z"/>
  </g>
</svg>
