<svg id="x-square" xmlns="http://www.w3.org/2000/svg" width="17.114" height="17.114" viewBox="0 0 17.114 17.114">
  <defs>
    <style>
      .cls-1 {
        fill: #191847;
        fill-rule: evenodd;
      }
    </style>
  </defs>
  <path id="Path_117" data-name="Path 117" class="cls-1" d="M14.974,1.07H2.139a1.07,1.07,0,0,0-1.07,1.07V14.974a1.07,1.07,0,0,0,1.07,1.07H14.974a1.07,1.07,0,0,0,1.07-1.07V2.139A1.07,1.07,0,0,0,14.974,1.07ZM2.139,0A2.139,2.139,0,0,0,0,2.139V14.974a2.139,2.139,0,0,0,2.139,2.139H14.974a2.139,2.139,0,0,0,2.139-2.139V2.139A2.139,2.139,0,0,0,14.974,0Z"/>
  <path id="Path_118" data-name="Path 118" class="cls-1" d="M17.4,9.156a.535.535,0,0,1,0,.757L9.912,17.4a.535.535,0,0,1-.757-.757l7.487-7.487a.535.535,0,0,1,.757,0Z" transform="translate(-4.721 -4.721)"/>
  <path id="Path_119" data-name="Path 119" class="cls-1" d="M9.156,9.156a.535.535,0,0,0,0,.757L16.643,17.4a.535.535,0,0,0,.757-.757L9.913,9.156a.535.535,0,0,0-.757,0Z" transform="translate(-4.721 -4.721)"/>
</svg>
